Coordinates
version=1
nRows=5
nColumns=40
inDegrees=yes

Units are S.I. units (second, meters, Newtons, ...)
If the header above contains a line with 'inDegrees', this indicates whether rotational values are in degrees (yes) or radians (no).

endheader
time	pelvis_tilt	pelvis_list	pelvis_rotation	pelvis_tx	pelvis_ty	pelvis_tz	hip_flexion_r	hip_adduction_r	hip_rotation_r	knee_angle_r	knee_angle_r_beta	ankle_angle_r	subtalar_angle_r	mtp_angle_r	hip_flexion_l	hip_adduction_l	hip_rotation_l	knee_angle_l	knee_angle_l_beta	ankle_angle_l	subtalar_angle_l	mtp_angle_l	lumbar_extension	lumbar_bending	lumbar_rotation	arm_flex_r	arm_add_r	arm_rot_r	elbow_flex_r	pro_sup_r	wrist_flex_r	wrist_dev_r	arm_flex_l	arm_add_l	arm_rot_l	elbow_flex_l	pro_sup_l	wrist_flex_l	wrist_dev_l
      6.00000000	     -1.80752570	     26.34847454	     89.98998201	      0.45405433	      0.79498501	     -0.62646068	      2.31922396	     29.99046418	     39.91232816	     31.55257823	      0.55069638	     -3.37264706	      0.00000000	      0.00000000	    -29.98509710	    -22.38815443	    -39.97497403	     47.95173740	      0.83691570	     32.39872631	      0.00000000	      0.00000000	     89.98609658	    -89.47991989	    -89.98593068	    -86.95098462	    -80.93843974	     89.47816573	      0.12646092	      1.14702163	      0.00000000	      0.00000000	     63.76345839	     58.99577753	      6.80185391	     16.21129963	      2.44410471	      0.00000000	      0.00000000
      6.00500000	     -1.98959052	     26.40627113	     89.98995322	      0.45462508	      0.79397192	     -0.62633579	      2.38749691	     29.99047824	     39.91114008	     31.87762573	      0.55636953	     -3.27816032	      0.00000000	      0.00000000	    -29.98504986	    -22.35837045	    -39.97495962	     48.20806100	      0.84138939	     32.46022216	      0.00000000	      0.00000000	     89.98605493	    -89.51114925	    -89.98589775	    -86.80599495	    -80.97052829	     89.50209850	      0.12561399	      1.13214312	      0.00000000	      0.00000000	     63.67603083	     58.93258424	      6.78611271	     16.17392027	      2.45811943	      0.00000000	      0.00000000
      6.01000000	     -2.18309261	     26.45718843	     89.98991564	      0.45514905	      0.79291726	     -0.62627867	      2.47663127	     29.99048507	     39.90950739	     32.28093225	      0.56340855	     -2.97808130	      0.00000000	      0.00000000	    -29.98502840	    -22.30858288	    -39.97492922	     48.46585182	      0.84588869	     32.52473279	      0.00000000	      0.00000000	     89.98602828	    -89.54298702	    -89.98588045	    -86.48356576	    -81.00148543	     89.50226484	      0.12544968	      1.13146333	      0.00000000	      0.00000000	     63.53768096	     58.86367453	      6.78476199	     16.16026162	      2.46038545	      0.00000000	      0.00000000
      6.01500000	     -2.37382422	     26.49050114	     89.98988857	      0.45567756	      0.79189981	     -0.62621246	      2.56943350	     29.99049397	     39.90857455	     32.65710493	      0.56997401	     -2.66334325	      0.00000000	      0.00000000	    -29.98499191	    -22.24083384	    -39.97494231	     48.66793671	      0.84941574	     32.60516625	      0.00000000	      0.00000000	     89.98600020	    -89.55635073	    -89.98585524	    -86.12601880	    -80.99372166	     89.51734075	      0.12475292	      1.12640583	      0.00000000	      0.00000000	     63.43482580	     58.81973423	      6.83993972	     16.13730474	      2.46952561	      0.00000000	      0.00000000
      6.02000000	     -2.56893932	     26.51978879	     89.98986244	      0.45618632	      0.79085189	     -0.62619288	      2.67893735	     29.99050049	     39.90689135	     33.06279977	      0.57705472	     -2.36469068	      0.00000000	      0.00000000	    -29.98495940	    -22.16562526	    -39.97495098	     48.86846716	      0.85291565	     32.68708896	      0.00000000	      0.00000000	     89.98596125	    -89.57544897	    -89.98582168	    -85.75506165	    -80.98588838	     89.52417041	      0.12424106	      1.12799826	      0.00000000	      0.00000000	     63.30074923	     58.76021605	      6.89338689	     16.11097183	      2.45159900	      0.00000000	      0.00000000
